<svg id="visual" viewBox="0 0 960 540" width="960" height="540" xmlns="http://www.w3.org/2000/svg" xmlns:xlink="http://www.w3.org/1999/xlink" version="1.1"><rect x="0" y="0" width="960" height="540" fill="#180e1e"></rect><path d="M0 205L12.3 197.3C24.7 189.7 49.3 174.3 74 181.5C98.7 188.7 123.3 218.3 148 227C172.7 235.7 197.3 223.3 221.8 222.8C246.3 222.3 270.7 233.7 295.2 230.7C319.7 227.7 344.3 210.3 369 206.3C393.7 202.3 418.3 211.7 443 205.2C467.7 198.7 492.3 176.3 517 168.8C541.7 161.3 566.3 168.7 591 181.8C615.7 195 640.3 214 664.8 211.7C689.3 209.3 713.7 185.7 738.2 171.3C762.7 157 787.3 152 812 166.8C836.7 181.7 861.3 216.3 886 233.5C910.7 250.7 935.3 250.3 947.7 250.2L960 250L960 541L947.7 541C935.3 541 910.7 541 886 541C861.3 541 836.7 541 812 541C787.3 541 762.7 541 738.2 541C713.7 541 689.3 541 664.8 541C640.3 541 615.7 541 591 541C566.3 541 541.7 541 517 541C492.3 541 467.7 541 443 541C418.3 541 393.7 541 369 541C344.3 541 319.7 541 295.2 541C270.7 541 246.3 541 221.8 541C197.3 541 172.7 541 148 541C123.3 541 98.7 541 74 541C49.3 541 24.7 541 12.3 541L0 541Z" fill="#fe38c2"></path><path d="M0 171L12.3 183.5C24.7 196 49.3 221 74 230.2C98.7 239.3 123.3 232.7 148 237.2C172.7 241.7 197.3 257.3 221.8 250C246.3 242.7 270.7 212.3 295.2 209C319.7 205.7 344.3 229.3 369 227.7C393.7 226 418.3 199 443 188.2C467.7 177.3 492.3 182.7 517 199.7C541.7 216.7 566.3 245.3 591 259C615.7 272.7 640.3 271.3 664.8 267.7C689.3 264 713.7 258 738.2 252.8C762.7 247.7 787.3 243.3 812 234.7C836.7 226 861.3 213 886 215C910.7 217 935.3 234 947.7 242.5L960 251L960 541L947.7 541C935.3 541 910.7 541 886 541C861.3 541 836.7 541 812 541C787.3 541 762.7 541 738.2 541C713.7 541 689.3 541 664.8 541C640.3 541 615.7 541 591 541C566.3 541 541.7 541 517 541C492.3 541 467.7 541 443 541C418.3 541 393.7 541 369 541C344.3 541 319.7 541 295.2 541C270.7 541 246.3 541 221.8 541C197.3 541 172.7 541 148 541C123.3 541 98.7 541 74 541C49.3 541 24.7 541 12.3 541L0 541Z" fill="#f333c5"></path><path d="M0 228L12.3 240.5C24.7 253 49.3 278 74 280.8C98.7 283.7 123.3 264.3 148 254.2C172.7 244 197.3 243 221.8 250.5C246.3 258 270.7 274 295.2 284.7C319.7 295.3 344.3 300.7 369 296.2C393.7 291.7 418.3 277.3 443 263C467.7 248.7 492.3 234.3 517 229.8C541.7 225.3 566.3 230.7 591 244.7C615.7 258.7 640.3 281.3 664.8 288.8C689.3 296.3 713.7 288.7 738.2 288.2C762.7 287.7 787.3 294.3 812 285.5C836.7 276.7 861.3 252.3 886 239.8C910.7 227.3 935.3 226.7 947.7 226.3L960 226L960 541L947.7 541C935.3 541 910.7 541 886 541C861.3 541 836.7 541 812 541C787.3 541 762.7 541 738.2 541C713.7 541 689.3 541 664.8 541C640.3 541 615.7 541 591 541C566.3 541 541.7 541 517 541C492.3 541 467.7 541 443 541C418.3 541 393.7 541 369 541C344.3 541 319.7 541 295.2 541C270.7 541 246.3 541 221.8 541C197.3 541 172.7 541 148 541C123.3 541 98.7 541 74 541C49.3 541 24.7 541 12.3 541L0 541Z" fill="#e730c9"></path><path d="M0 289L12.3 292C24.7 295 49.3 301 74 304.3C98.7 307.7 123.3 308.3 148 297.3C172.7 286.3 197.3 263.7 221.8 258.7C246.3 253.7 270.7 266.3 295.2 267.7C319.7 269 344.3 259 369 261.2C393.7 263.3 418.3 277.7 443 283.7C467.7 289.7 492.3 287.3 517 283.7C541.7 280 566.3 275 591 269.8C615.7 264.7 640.3 259.3 664.8 257.5C689.3 255.7 713.7 257.3 738.2 265.8C762.7 274.3 787.3 289.7 812 300.7C836.7 311.7 861.3 318.3 886 309.5C910.7 300.7 935.3 276.3 947.7 264.2L960 252L960 541L947.7 541C935.3 541 910.7 541 886 541C861.3 541 836.7 541 812 541C787.3 541 762.7 541 738.2 541C713.7 541 689.3 541 664.8 541C640.3 541 615.7 541 591 541C566.3 541 541.7 541 517 541C492.3 541 467.7 541 443 541C418.3 541 393.7 541 369 541C344.3 541 319.7 541 295.2 541C270.7 541 246.3 541 221.8 541C197.3 541 172.7 541 148 541C123.3 541 98.7 541 74 541C49.3 541 24.7 541 12.3 541L0 541Z" fill="#db2dcc"></path><path d="M0 273L12.3 286.5C24.7 300 49.3 327 74 331.7C98.7 336.3 123.3 318.7 148 307.5C172.7 296.3 197.3 291.7 221.8 296.2C246.3 300.7 270.7 314.3 295.2 312.7C319.7 311 344.3 294 369 287.5C393.7 281 418.3 285 443 295.2C467.7 305.3 492.3 321.7 517 324.8C541.7 328 566.3 318 591 314.7C615.7 311.3 640.3 314.7 664.8 320.8C689.3 327 713.7 336 738.2 329.2C762.7 322.3 787.3 299.7 812 298.5C836.7 297.3 861.3 317.7 886 326.2C910.7 334.7 935.3 331.3 947.7 329.7L960 328L960 541L947.7 541C935.3 541 910.7 541 886 541C861.3 541 836.7 541 812 541C787.3 541 762.7 541 738.2 541C713.7 541 689.3 541 664.8 541C640.3 541 615.7 541 591 541C566.3 541 541.7 541 517 541C492.3 541 467.7 541 443 541C418.3 541 393.7 541 369 541C344.3 541 319.7 541 295.2 541C270.7 541 246.3 541 221.8 541C197.3 541 172.7 541 148 541C123.3 541 98.7 541 74 541C49.3 541 24.7 541 12.3 541L0 541Z" fill="#cd2ccf"></path><path d="M0 358L12.3 359.7C24.7 361.3 49.3 364.7 74 357C98.7 349.3 123.3 330.7 148 331.8C172.7 333 197.3 354 221.8 360C246.3 366 270.7 357 295.2 356.5C319.7 356 344.3 364 369 363.2C393.7 362.3 418.3 352.7 443 351.2C467.7 349.7 492.3 356.3 517 355.7C541.7 355 566.3 347 591 344.3C615.7 341.7 640.3 344.3 664.8 347.3C689.3 350.3 713.7 353.7 738.2 354.3C762.7 355 787.3 353 812 351.2C836.7 349.3 861.3 347.7 886 338.7C910.7 329.7 935.3 313.3 947.7 305.2L960 297L960 541L947.7 541C935.3 541 910.7 541 886 541C861.3 541 836.7 541 812 541C787.3 541 762.7 541 738.2 541C713.7 541 689.3 541 664.8 541C640.3 541 615.7 541 591 541C566.3 541 541.7 541 517 541C492.3 541 467.7 541 443 541C418.3 541 393.7 541 369 541C344.3 541 319.7 541 295.2 541C270.7 541 246.3 541 221.8 541C197.3 541 172.7 541 148 541C123.3 541 98.7 541 74 541C49.3 541 24.7 541 12.3 541L0 541Z" fill="#bf2dd3"></path><path d="M0 361L12.3 363C24.7 365 49.3 369 74 363C98.7 357 123.3 341 148 334.8C172.7 328.7 197.3 332.3 221.8 340C246.3 347.7 270.7 359.3 295.2 359C319.7 358.7 344.3 346.3 369 351.5C393.7 356.7 418.3 379.3 443 384.2C467.7 389 492.3 376 517 368.8C541.7 361.7 566.3 360.3 591 358.5C615.7 356.7 640.3 354.3 664.8 356.3C689.3 358.3 713.7 364.7 738.2 365C762.7 365.3 787.3 359.7 812 361.8C836.7 364 861.3 374 886 370.8C910.7 367.7 935.3 351.3 947.7 343.2L960 335L960 541L947.7 541C935.3 541 910.7 541 886 541C861.3 541 836.7 541 812 541C787.3 541 762.7 541 738.2 541C713.7 541 689.3 541 664.8 541C640.3 541 615.7 541 591 541C566.3 541 541.7 541 517 541C492.3 541 467.7 541 443 541C418.3 541 393.7 541 369 541C344.3 541 319.7 541 295.2 541C270.7 541 246.3 541 221.8 541C197.3 541 172.7 541 148 541C123.3 541 98.7 541 74 541C49.3 541 24.7 541 12.3 541L0 541Z" fill="#af2ed5"></path><path d="M0 360L12.3 365.8C24.7 371.7 49.3 383.3 74 383.8C98.7 384.3 123.3 373.7 148 375.8C172.7 378 197.3 393 221.8 395.2C246.3 397.3 270.7 386.7 295.2 383.2C319.7 379.7 344.3 383.3 369 384.3C393.7 385.3 418.3 383.7 443 381.7C467.7 379.7 492.3 377.3 517 383.8C541.7 390.3 566.3 405.7 591 410.7C615.7 415.7 640.3 410.3 664.8 409.7C689.3 409 713.7 413 738.2 406.3C762.7 399.7 787.3 382.3 812 376.3C836.7 370.3 861.3 375.7 886 384.8C910.7 394 935.3 407 947.7 413.5L960 420L960 541L947.7 541C935.3 541 910.7 541 886 541C861.3 541 836.7 541 812 541C787.3 541 762.7 541 738.2 541C713.7 541 689.3 541 664.8 541C640.3 541 615.7 541 591 541C566.3 541 541.7 541 517 541C492.3 541 467.7 541 443 541C418.3 541 393.7 541 369 541C344.3 541 319.7 541 295.2 541C270.7 541 246.3 541 221.8 541C197.3 541 172.7 541 148 541C123.3 541 98.7 541 74 541C49.3 541 24.7 541 12.3 541L0 541Z" fill="#9e2fd8"></path><path d="M0 424L12.3 419.2C24.7 414.3 49.3 404.7 74 407.2C98.7 409.7 123.3 424.3 148 430.5C172.7 436.7 197.3 434.3 221.8 431.7C246.3 429 270.7 426 295.2 419C319.7 412 344.3 401 369 402.3C393.7 403.7 418.3 417.3 443 419.3C467.7 421.3 492.3 411.7 517 410.2C541.7 408.7 566.3 415.3 591 419.5C615.7 423.7 640.3 425.3 664.8 430.7C689.3 436 713.7 445 738.2 443.2C762.7 441.3 787.3 428.7 812 423.2C836.7 417.7 861.3 419.3 886 424.8C910.7 430.3 935.3 439.7 947.7 444.3L960 449L960 541L947.7 541C935.3 541 910.7 541 886 541C861.3 541 836.7 541 812 541C787.3 541 762.7 541 738.2 541C713.7 541 689.3 541 664.8 541C640.3 541 615.7 541 591 541C566.3 541 541.7 541 517 541C492.3 541 467.7 541 443 541C418.3 541 393.7 541 369 541C344.3 541 319.7 541 295.2 541C270.7 541 246.3 541 221.8 541C197.3 541 172.7 541 148 541C123.3 541 98.7 541 74 541C49.3 541 24.7 541 12.3 541L0 541Z" fill="#8b31da"></path><path d="M0 449L12.3 446.3C24.7 443.7 49.3 438.3 74 436C98.7 433.7 123.3 434.3 148 441.2C172.7 448 197.3 461 221.8 458.3C246.3 455.7 270.7 437.3 295.2 436.2C319.7 435 344.3 451 369 459.3C393.7 467.7 418.3 468.3 443 461.2C467.7 454 492.3 439 517 438.2C541.7 437.3 566.3 450.7 591 451.5C615.7 452.3 640.3 440.7 664.8 442.7C689.3 444.7 713.7 460.3 738.2 464.7C762.7 469 787.3 462 812 459.7C836.7 457.3 861.3 459.7 886 461C910.7 462.3 935.3 462.7 947.7 462.8L960 463L960 541L947.7 541C935.3 541 910.7 541 886 541C861.3 541 836.7 541 812 541C787.3 541 762.7 541 738.2 541C713.7 541 689.3 541 664.8 541C640.3 541 615.7 541 591 541C566.3 541 541.7 541 517 541C492.3 541 467.7 541 443 541C418.3 541 393.7 541 369 541C344.3 541 319.7 541 295.2 541C270.7 541 246.3 541 221.8 541C197.3 541 172.7 541 148 541C123.3 541 98.7 541 74 541C49.3 541 24.7 541 12.3 541L0 541Z" fill="#7634dc"></path><path d="M0 496L12.3 494.2C24.7 492.3 49.3 488.7 74 489.2C98.7 489.7 123.3 494.3 148 494.8C172.7 495.3 197.3 491.7 221.8 489.8C246.3 488 270.7 488 295.2 490C319.7 492 344.3 496 369 495.8C393.7 495.7 418.3 491.3 443 485C467.7 478.7 492.3 470.3 517 469.8C541.7 469.3 566.3 476.7 591 476.2C615.7 475.7 640.3 467.3 664.8 464.5C689.3 461.7 713.7 464.3 738.2 465.2C762.7 466 787.3 465 812 469.2C836.7 473.3 861.3 482.7 886 486.7C910.7 490.7 935.3 489.3 947.7 488.7L960 488L960 541L947.7 541C935.3 541 910.7 541 886 541C861.3 541 836.7 541 812 541C787.3 541 762.7 541 738.2 541C713.7 541 689.3 541 664.8 541C640.3 541 615.7 541 591 541C566.3 541 541.7 541 517 541C492.3 541 467.7 541 443 541C418.3 541 393.7 541 369 541C344.3 541 319.7 541 295.2 541C270.7 541 246.3 541 221.8 541C197.3 541 172.7 541 148 541C123.3 541 98.7 541 74 541C49.3 541 24.7 541 12.3 541L0 541Z" fill="#5c36de"></path><path d="M0 488L12.3 494.3C24.7 500.7 49.3 513.3 74 517.2C98.7 521 123.3 516 148 514.8C172.7 513.7 197.3 516.3 221.8 517.3C246.3 518.3 270.7 517.7 295.2 512.3C319.7 507 344.3 497 369 492.7C393.7 488.3 418.3 489.7 443 489.2C467.7 488.7 492.3 486.3 517 485.7C541.7 485 566.3 486 591 488.8C615.7 491.7 640.3 496.3 664.8 501.8C689.3 507.3 713.7 513.7 738.2 512.2C762.7 510.7 787.3 501.3 812 495.2C836.7 489 861.3 486 886 491.3C910.7 496.7 935.3 510.3 947.7 517.2L960 524L960 541L947.7 541C935.3 541 910.7 541 886 541C861.3 541 836.7 541 812 541C787.3 541 762.7 541 738.2 541C713.7 541 689.3 541 664.8 541C640.3 541 615.7 541 591 541C566.3 541 541.7 541 517 541C492.3 541 467.7 541 443 541C418.3 541 393.7 541 369 541C344.3 541 319.7 541 295.2 541C270.7 541 246.3 541 221.8 541C197.3 541 172.7 541 148 541C123.3 541 98.7 541 74 541C49.3 541 24.7 541 12.3 541L0 541Z" fill="#3838df"></path></svg>